<?xml version="1.0" standalone="no"?>
<!DOCTYPE svg PUBLIC "-//W3C//DTD SVG 20010904//EN"
 "http://www.w3.org/TR/2001/REC-SVG-20010904/DTD/svg10.dtd">
<svg version="1.0" xmlns="http://www.w3.org/2000/svg"
 width="70.000000pt" height="71.000000pt" viewBox="0 0 70.000000 71.000000"
 preserveAspectRatio="xMidYMid meet">
<metadata>
Created by potrace 1.15, written by Peter Selinger 2001-2017
</metadata>
<g transform="translate(0.000000,71.000000) scale(0.100000,-0.100000)"
fill="#ff458a" stroke="none">
<path d="M73 700 c-49 -20 -57 -50 -61 -239 -4 -171 -4 -176 14 -159 11 9 36
19 57 23 35 7 37 9 22 24 -18 21 -20 64 -4 93 l11 21 20 -24 c40 -50 46 -108
9 -94 -12 5 -13 3 -4 -6 6 -6 36 -22 67 -34 l56 -23 10 40 c6 21 14 46 17 54
3 8 -1 14 -9 14 -24 0 -48 34 -48 69 0 30 1 31 23 20 12 -6 30 -21 39 -33 l18
-21 0 28 c0 46 -26 96 -54 103 -28 7 -34 20 -14 26 8 3 4 9 -10 17 -15 8 -28
9 -41 1 -32 -17 -40 -12 -32 18 12 45 47 42 92 -10 27 -30 38 -38 39 -25 0 20
30 23 30 3 0 -8 -4 -17 -9 -21 -5 -3 2 -23 16 -45 24 -36 27 -38 47 -25 29 21
79 18 110 -6 14 -11 26 -23 26 -27 0 -9 -80 -42 -100 -42 -8 0 -22 4 -30 10
-12 8 -12 11 0 27 8 11 5 9 -7 -4 -40 -42 -53 -120 -29 -176 35 -84 99 -92
203 -27 119 74 144 112 112 171 -27 52 -419 257 -539 283 -14 3 -35 1 -47 -4z"/>
<path d="M24 275 c-14 -21 -16 -40 -10 -102 7 -84 23 -119 64 -134 36 -14 102
12 153 61 59 56 52 108 -22 161 -24 17 -33 19 -42 9 -9 -10 -9 -11 0 -6 6 3
15 1 18 -4 8 -13 -23 -50 -42 -50 -19 0 -17 59 3 67 27 10 -5 23 -58 23 -40 0
-50 -4 -64 -25z"/>
</g>
</svg>
